<svg version="1.1" id="Layer_1" xmlns="http://www.w3.org/2000/svg" xmlns:xlink="http://www.w3.org/1999/xlink" x="0px" y="0px"
	 width="100%" viewBox="0 0 480 288" enable-background="new 0 0 480 288" xml:space="preserve">
<path fill="#ffffff" opacity="1.000000" stroke="none" 
	d="
M366.785645,138.241119 
	C376.162842,141.402832 382.463654,147.823059 387.985901,155.215317 
	C388.283020,155.613052 388.665100,155.959824 388.894806,156.390488 
	C389.022827,156.630569 388.917816,156.994919 388.917816,157.607513 
	C386.661224,157.544128 385.424408,156.050766 384.234436,154.504807 
	C380.263916,149.346375 375.874756,145.161911 369.546112,142.385773 
	C360.141083,138.260178 353.805176,130.185013 348.967468,121.260574 
	C346.000519,115.787209 342.318146,113.360687 335.736786,113.077049 
	C324.643372,112.598946 313.616272,110.581520 302.561340,109.211006 
	C301.543427,109.084816 300.651001,108.767410 300.156189,107.788422 
	C301.262665,106.145782 302.990906,106.890884 304.322754,106.390541 
	C305.693420,105.875603 307.352570,105.811813 307.600830,103.846046 
	C307.896423,101.505104 305.971039,101.253487 304.533661,100.557465 
	C303.936401,100.268257 303.228455,99.773468 302.677734,99.887642 
	C294.831543,101.514168 286.836945,99.398628 278.788239,100.629250 
	C278.411743,103.777298 280.444916,105.774445 281.560089,108.059647 
	C285.969971,117.096214 281.125458,127.163902 271.455841,129.463074 
	C268.036865,130.276016 265.541473,127.958000 261.979980,127.383446 
	C268.652222,132.430771 275.194092,134.648270 282.163147,129.767181 
	C288.984924,124.989243 288.221405,117.824997 287.012726,109.760323 
	C293.147369,110.871376 298.806580,111.724373 304.374969,112.980202 
	C307.004791,113.573296 306.271912,116.184662 306.289703,118.071365 
	C306.372589,126.881065 305.855743,135.694778 308.099579,144.397797 
	C308.836365,147.255447 310.888092,149.690399 310.755341,153.702484 
	C302.489929,150.722794 296.115326,144.962540 288.387848,141.972183 
	C301.624451,151.321594 315.941040,158.517563 331.462738,163.199966 
	C343.129974,166.719604 355.067932,168.841034 367.252533,169.607727 
	C371.328583,169.864197 374.753510,169.056854 378.232208,164.652206 
	C356.494995,161.914780 347.667145,147.146561 342.968658,128.791199 
	C342.115967,125.459984 341.704254,121.555283 343.994110,118.172981 
	C346.561371,118.584663 346.918396,120.811035 347.908905,122.401779 
	C353.398712,131.218552 358.893372,140.529541 368.447357,145.057266 
	C376.345428,148.800201 381.947723,154.276016 387.422577,160.601181 
	C389.821838,163.373062 389.958313,165.347305 388.047882,167.969498 
	C384.793304,172.436691 380.774323,176.191666 376.782562,179.971161 
	C375.275421,181.398117 373.402527,181.200867 371.585999,181.174606 
	C345.659485,180.799927 321.205200,174.587631 298.202850,162.632660 
	C296.889587,161.950119 295.564362,161.290482 294.320496,160.658661 
	C291.608032,162.959183 291.608032,162.959183 288.863983,163.747818 
	C287.901276,162.387634 289.281067,161.681152 289.728210,160.733398 
	C290.150604,159.838226 290.838318,158.972382 289.675812,157.991989 
	C287.669617,157.948105 287.743500,159.897064 287.012970,161.014221 
	C284.317535,165.135971 281.053528,165.131561 278.674225,160.830719 
	C277.461670,158.638885 276.805450,156.209976 276.526917,153.702621 
	C276.204407,150.799469 274.702393,148.921341 271.995148,147.689072 
	C267.448914,145.619766 263.041260,143.248383 258.541412,141.074265 
	C251.264221,137.558304 251.252609,137.582336 245.304855,141.516693 
	C243.666672,140.262314 246.168442,138.909576 245.279495,137.392349 
	C244.631561,138.230576 244.134842,138.882050 243.628891,139.526276 
	C240.721161,143.228699 238.390518,142.999969 236.375061,138.673203 
	C235.609406,137.029495 235.143997,135.225327 234.711029,133.452942 
	C234.267944,131.639038 233.544968,130.345428 231.386353,130.607086 
	C229.489456,131.690063 230.750397,134.219696 228.922409,135.536331 
	C227.654419,136.092575 228.226791,134.598373 227.521774,134.089279 
	C226.529510,135.003510 226.498611,137.664444 224.337036,137.080841 
	C222.270691,136.522949 222.081955,134.342392 221.807678,132.572006 
	C221.246582,128.950150 221.452805,124.810806 215.765869,125.454605 
	C214.462357,127.430893 215.038300,130.420517 212.525803,131.886551 
	C207.477585,130.376404 212.527649,121.154076 204.661240,121.835686 
	C203.487320,122.203201 203.830841,123.339371 203.709503,124.286270 
	C203.546326,125.559525 202.957611,126.559364 201.569458,126.633774 
	C200.154114,126.709625 199.233536,125.582481 199.190536,124.494156 
	C199.009293,119.905258 195.761261,119.605896 192.345703,118.913269 
	C167.983307,113.972931 143.532852,112.578545 118.977013,117.146927 
	C110.982323,118.634270 103.117722,120.812752 95.480240,123.690285 
	C94.420731,124.089478 93.427452,124.880951 91.217033,123.285324 
	C124.249817,110.981636 157.724411,110.313087 191.553482,112.206688 
	C171.075684,107.994644 150.442886,109.423553 129.833527,109.797241 
	C150.345154,105.311966 170.986847,106.513039 191.862564,108.244659 
	C192.666458,103.504143 189.962448,102.523323 186.504257,102.322556 
	C175.828659,101.702827 165.244781,103.137672 154.627579,103.812347 
	C153.659805,103.873848 152.699493,104.411072 151.264572,103.379723 
	C156.195129,101.083710 161.260834,100.780251 166.151505,100.263542 
	C174.556686,99.375511 182.960846,97.869041 191.497452,99.475113 
	C194.875320,100.110619 196.676041,101.532471 196.334259,105.057747 
	C196.072922,107.753250 197.390442,109.259628 199.919174,109.464729 
	C215.133163,110.698692 229.384247,116.301849 244.241547,119.134331 
	C248.978561,120.037430 253.865173,119.960861 258.535767,121.372002 
	C260.627197,122.003891 261.553680,120.936897 261.786774,118.831535 
	C262.353638,113.711029 263.058411,108.605782 263.709442,103.494614 
	C264.166168,99.908897 265.381256,96.671219 268.350891,94.411659 
	C269.650696,93.422630 271.349915,92.039658 272.868713,93.141296 
	C275.463348,95.023262 277.373810,94.137718 279.019714,92.323067 
	C280.903870,92.929977 280.221619,95.488808 282.411194,95.474815 
	C284.062469,95.287552 283.587311,93.356804 284.515869,92.503952 
	C285.658417,91.454597 287.166565,91.012093 287.771301,92.697334 
	C289.513184,97.551674 292.547821,94.127792 295.394714,94.456993 
	C294.873047,90.706337 292.620544,87.945755 292.645355,83.259102 
	C289.903900,87.846558 286.727966,87.209747 283.239288,86.799919 
	C277.392120,86.113045 271.539398,86.408203 266.470306,90.159615 
	C265.259583,91.055611 263.903229,91.698174 262.312073,91.465324 
	C260.874634,85.072273 260.056213,84.481804 253.309662,84.301270 
	C245.303970,84.087021 237.325394,84.447571 229.354218,85.141815 
	C227.550888,85.298866 225.723557,85.627029 222.816254,84.367271 
	C227.449570,82.177361 231.658508,82.139473 235.680267,81.771469 
	C241.970596,81.195908 248.293823,80.940407 254.608765,80.694160 
	C256.886932,80.605331 258.504944,80.048431 258.892578,77.534119 
	C258.991669,76.891411 259.318878,76.274513 259.594360,75.669952 
	C261.089752,72.388275 262.959198,68.932961 266.941864,69.097107 
	C271.171600,69.271431 271.387268,73.382492 272.254211,76.553253 
	C272.420990,77.163132 272.719330,77.737038 273.116241,78.723259 
	C278.627563,77.037590 283.352966,73.781128 288.909424,72.602547 
	C292.898254,71.756485 295.055328,71.861671 295.666962,76.735428 
	C296.398499,82.564888 298.880524,87.852600 302.781738,92.451073 
	C312.320190,103.694397 329.718109,101.201797 335.577332,87.629631 
	C336.674072,85.089119 337.499207,82.431343 338.771179,78.946877 
	C339.678467,85.557358 337.841064,90.583939 335.105530,95.394791 
	C334.039154,97.270226 332.218201,99.389580 334.473969,101.189766 
	C346.166779,110.520966 351.324158,125.264534 362.616119,134.888168 
	C363.881775,135.966827 365.197235,136.986984 366.785645,138.241119 
M246.491577,125.864586 
	C254.305573,129.184738 262.182617,132.336639 269.750671,136.239151 
	C283.379181,143.266800 295.711578,152.485001 309.523193,159.229401 
	C328.222931,168.360794 347.792023,173.551163 368.621124,174.033554 
	C372.687592,174.127747 375.582550,172.538651 377.796478,169.330048 
	C374.363892,171.776672 370.607117,172.482391 366.433228,172.221176 
	C339.263611,170.520798 314.172729,162.495193 291.486908,147.413742 
	C264.744995,129.635803 235.555176,118.141953 203.979706,112.592384 
	C201.691376,112.190193 199.279160,111.475334 197.045746,113.585327 
	C213.760696,115.898727 230.054642,119.588013 246.491577,125.864586 
z"/>
<path fill="#ffffff" opacity="1.000000" stroke="none" 
	d="
M260.005615,55.012489 
	C258.841705,55.037086 257.677094,55.091534 256.514343,55.065304 
	C256.223480,55.058743 255.938507,54.792538 255.646423,54.643414 
	C255.570114,53.576149 256.394318,53.192169 257.117554,52.926125 
	C266.957092,49.306664 276.717590,45.430569 286.705109,42.274395 
	C291.171478,40.862972 296.576447,43.175430 300.579224,39.004211 
	C299.997559,26.549330 300.728210,25.798763 316.201691,24.219559 
	C313.546326,28.939081 314.197083,33.651508 314.648529,38.785225 
	C303.143127,41.872166 298.005035,50.602310 295.438293,62.130081 
	C292.995178,59.681454 292.728638,57.564526 292.868317,55.497982 
	C293.129730,51.631050 291.054504,50.840115 287.898193,51.461208 
	C263.683594,56.226151 239.874268,62.354904 217.432877,72.919731 
	C214.747025,74.184166 212.329773,76.022736 209.801544,77.616661 
	C208.816895,78.237442 207.951202,79.139717 206.890152,79.529167 
	C203.696472,80.701385 199.534119,81.656380 197.488495,79.214767 
	C195.071777,76.330238 195.601334,71.795845 197.246964,68.232391 
	C198.336517,65.873085 201.322311,66.147141 203.534897,66.073753 
	C209.849304,65.864326 216.175156,66.000145 222.496506,66.000145 
	C222.502853,65.474503 222.509201,64.948860 222.515549,64.423218 
	C215.576843,64.423218 208.638123,64.423836 201.699402,64.422989 
	C197.437714,64.422478 195.579041,66.439911 195.198242,70.802437 
	C194.850113,74.790764 194.869507,78.983315 192.683517,84.113670 
	C191.262344,79.991005 192.118393,77.209900 192.476364,74.424080 
	C193.363235,67.522339 191.654755,65.761223 184.935364,67.485291 
	C172.155411,70.764389 159.993515,75.737968 148.259918,81.762901 
	C146.678848,82.574745 145.184265,83.697182 143.178864,83.462578 
	C142.837921,81.551140 144.467468,81.296326 145.482834,80.728508 
	C160.537018,72.309845 176.354080,65.820724 193.286011,62.295349 
	C199.369522,61.028706 205.766571,60.873241 211.680023,62.013542 
	C228.474594,65.252052 243.809586,59.952728 260.082092,55.131344 
	C268.065857,53.450630 275.324768,51.987900 282.583649,50.525169 
	C282.487152,50.092995 282.390656,49.660824 282.294128,49.228649 
	C274.917542,51.390617 267.174561,51.932030 260.005615,55.012489 
z"/>
<path fill="#ffffff" opacity="1.000000" stroke="none" 
	d="
M313.585876,115.287674 
	C321.182526,114.231255 328.159058,116.321709 335.267944,116.859718 
	C337.272430,117.011414 337.657623,118.508202 337.328369,120.139656 
	C333.826660,137.490158 341.873413,150.380417 353.385345,161.958893 
	C353.816010,162.392044 354.048431,163.022232 354.986267,164.576736 
	C341.652985,163.706650 328.825775,163.033493 319.832520,153.274826 
	C309.963806,142.566177 310.518555,128.998077 313.585876,115.287674 
z"/>
<path fill="#ffffff" opacity="1.000000" stroke="none" 
	d="
M272.637787,205.589050 
	C274.996643,213.610947 277.265442,221.260910 279.798370,229.801407 
	C282.137512,220.891922 284.312744,212.701523 286.421021,204.493927 
	C286.825745,202.918335 285.861877,201.980301 284.458740,201.485809 
	C283.230133,201.052872 282.344574,200.400330 282.770294,198.939011 
	C283.128510,197.709473 284.249878,197.679993 285.219116,197.726105 
	C288.157379,197.865952 291.177917,197.086655 294.855255,198.675674 
	C292.248535,201.991226 290.159027,205.309021 289.154144,209.277252 
	C287.194427,217.015991 284.709747,224.621582 282.453094,232.285446 
	C281.880432,234.230255 281.447479,236.207657 278.754456,236.240402 
	C276.033966,236.273483 275.570129,234.218826 274.980621,232.331772 
	C273.017120,226.046387 271.117889,219.740936 268.778168,212.081863 
	C266.416992,219.717606 264.466217,226.010193 262.527069,232.306381 
	C261.933441,234.233810 261.520630,236.257278 258.804474,236.220383 
	C256.077301,236.183334 255.724457,234.005630 255.126129,232.172882 
	C253.266159,226.475632 251.614487,220.709274 249.696762,215.032288 
	C247.832993,209.514969 247.532455,203.296646 240.958786,198.677826 
	C247.183533,197.408188 251.556290,197.079575 257.775757,199.189667 
	C250.289230,202.139008 253.153000,206.222519 254.211166,209.998367 
	C255.864441,215.897766 257.559265,221.785538 260.252808,227.733170 
	C262.355286,220.836761 264.553864,213.967606 266.521515,207.032928 
	C267.572998,203.327103 263.751953,201.843063 261.470520,198.812393 
	C266.882507,197.115494 271.351532,197.417984 275.895081,198.291687 
	C276.166473,201.769363 270.890106,201.676254 272.637787,205.589050 
z"/>
<path fill="#ffffff" opacity="1.000000" stroke="none" 
	d="
M142.003250,207.816681 
	C141.853424,209.647156 142.273666,211.584793 139.982910,211.457657 
	C138.312332,211.364929 138.232269,209.741806 137.890625,208.460449 
	C137.111267,205.537460 138.389374,201.322510 133.108704,201.249695 
	C130.277863,201.210678 128.515106,202.176758 128.484848,205.114944 
	C128.400879,213.267380 128.449387,221.421066 128.410233,229.574097 
	C128.396759,232.380219 130.163437,232.764923 132.393387,232.763138 
	C133.719559,232.762070 135.366684,232.806305 135.305298,234.652725 
	C135.242065,236.553680 133.509766,236.293564 132.243484,236.307800 
	C128.082962,236.354568 123.921082,236.350983 119.760689,236.295319 
	C118.481743,236.278198 116.990341,236.448181 116.560387,234.662323 
	C116.670555,234.352509 116.757622,233.792053 116.898109,233.778320 
	C124.141396,233.070602 122.731407,227.670471 122.735611,223.052002 
	C122.740913,217.226608 122.706451,211.401108 122.730186,205.575821 
	C122.739861,203.201080 122.455925,201.232437 119.334602,201.259506 
	C116.735054,201.282059 114.566895,201.195557 113.809357,204.702835 
	C113.315926,206.987274 114.275383,211.586868 110.948395,211.107071 
	C106.914497,210.525330 110.038727,206.429169 109.661522,203.926498 
	C108.888878,198.800247 111.354523,197.273529 116.262741,197.569855 
	C122.399284,197.940323 128.594131,197.967484 134.727341,197.574188 
	C139.665207,197.257538 141.888565,198.968246 141.623093,203.929428 
	C141.561737,205.076202 141.859299,206.242172 142.003250,207.816681 
z"/>
<path fill="#ffffff" opacity="1.000000" stroke="none" 
	d="
M235.265137,236.319519 
	C233.451050,236.096817 231.790466,236.816498 230.671494,234.980743 
	C235.685394,229.111450 233.434769,222.270584 232.982025,215.667892 
	C232.800415,213.019577 231.251312,211.284134 228.404388,211.434433 
	C225.487228,211.588425 221.821686,212.381927 221.686462,215.420792 
	C221.395493,221.959244 219.218185,228.918808 224.137863,235.213028 
	C220.409210,237.180344 216.829529,236.204559 212.165314,235.832352 
	C217.319397,229.935684 215.291733,223.685425 215.516434,217.747574 
	C215.607712,215.335785 216.003403,212.694809 213.121719,211.199982 
	C212.212936,210.728592 211.778763,209.289505 212.664078,208.624603 
	C214.556198,207.203552 216.898087,206.563721 219.206039,207.244720 
	C220.148132,207.522705 220.790359,208.817001 221.751053,209.843430 
	C222.396088,209.566574 223.140610,209.279465 223.857285,208.934494 
	C233.715210,204.189270 238.890976,207.280182 239.195847,218.121857 
	C239.256714,220.285934 239.255127,222.452957 239.229965,224.617996 
	C239.186447,228.363281 238.672699,232.210281 242.167679,234.987167 
	C239.998291,236.997665 237.737030,236.062927 235.265137,236.319519 
z"/>
<path fill="#ffffff" opacity="1.000000" stroke="none" 
	d="
M341.748413,216.885864 
	C343.739929,213.608353 341.729187,211.323074 340.175140,208.795700 
	C343.668030,206.973022 346.730469,207.683487 350.488953,208.327148 
	C344.412201,218.484070 342.786163,229.645752 338.084808,239.643997 
	C336.272308,243.498581 334.210114,247.103775 329.611481,248.082840 
	C327.992401,248.427551 326.027374,248.672302 325.501984,246.473068 
	C324.937714,244.111221 326.801208,244.021469 328.507751,243.587646 
	C334.195679,242.141739 335.305664,239.359100 332.764923,234.207993 
	C331.372314,231.384598 330.395447,228.356155 329.231018,225.420212 
	C327.050171,219.921524 325.800262,214.011520 321.285248,208.763687 
	C325.628113,207.166870 329.314484,207.477646 333.798401,208.450027 
	C328.099976,214.581100 333.787354,219.509232 334.683685,224.885971 
	C335.004700,226.811462 335.951721,228.632568 337.058502,231.760254 
	C338.822540,226.196213 340.238373,221.730377 341.748413,216.885864 
z"/>
<path fill="#ffffff" opacity="1.000000" stroke="none" 
	d="
M157.688751,95.631561 
	C179.503769,91.423355 200.872879,86.323257 222.982391,86.666107 
	C232.529160,86.814148 233.618164,87.873657 233.277252,97.383385 
	C233.132538,101.419884 232.715271,105.471489 231.134521,109.230705 
	C230.673584,109.215851 230.212631,109.200996 229.751678,109.186150 
	C229.751678,106.152733 229.635696,103.113815 229.779236,100.087204 
	C229.987457,95.697075 227.773758,93.643234 223.634064,93.291443 
	C211.350525,92.247574 199.072845,92.589699 186.828415,93.779991 
	C177.095932,94.726089 167.394699,95.993118 157.676788,97.092979 
	C157.394714,97.124908 156.945694,96.963173 156.808472,96.744751 
	C156.449127,96.172813 156.971130,95.959976 157.688751,95.631561 
z"/>
<path fill="#ffffff" opacity="1.000000" stroke="none" 
	d="
M176.084442,236.373535 
	C171.048737,236.248093 168.668533,233.514984 168.001434,229.305298 
	C167.323517,225.027222 169.856049,222.345978 173.464645,220.789124 
	C175.721985,219.815247 178.227737,219.391678 180.646713,218.827057 
	C182.193726,218.465973 184.342072,218.895752 184.284546,216.445648 
	C184.231018,214.165878 183.297653,212.142471 180.810562,211.543671 
	C178.125229,210.897186 175.541687,211.503403 173.050537,212.608414 
	C171.958176,213.092972 170.681168,213.519730 169.973221,212.185577 
	C169.114731,210.567780 170.378571,209.727936 171.603256,209.123764 
	C174.764160,207.564346 178.045074,206.466629 181.657669,206.727478 
	C185.787216,207.025635 188.391998,208.969772 189.423660,213.145233 
	C190.523285,217.595810 190.020798,222.077087 190.102661,226.547012 
	C190.159348,229.641342 189.671783,232.814545 193.260513,235.831589 
	C186.919266,236.600433 181.578522,234.348785 176.084442,236.373535 
M179.991745,222.495010 
	C178.925827,222.925537 177.771179,223.214020 176.811005,223.813858 
	C174.185898,225.453812 173.506821,228.022934 174.607056,230.694458 
	C175.508728,232.883820 177.570984,233.591232 179.988831,232.976013 
	C183.079697,232.189545 184.825516,230.557281 184.671341,227.073196 
	C184.550354,224.338501 184.432968,221.981613 179.991745,222.495010 
z"/>
<path fill="#ffffff" opacity="1.000000" stroke="none" 
	d="
M317.361603,222.007889 
	C317.911316,226.738327 315.716217,231.455460 319.656250,234.978134 
	C319.357422,235.385849 319.166168,235.856857 318.995270,235.849579 
	C313.402771,235.611282 307.846954,235.882538 302.258118,236.306610 
	C299.003143,236.553589 296.871033,233.891296 296.063446,230.743347 
	C295.163574,227.235458 295.983368,224.144516 299.087646,221.940109 
	C301.887756,219.951691 305.183655,219.371964 308.455444,218.822983 
	C310.198273,218.530563 311.777649,218.336929 311.800598,216.032516 
	C311.823517,213.729950 310.803619,212.145889 308.596558,211.592957 
	C306.110779,210.970215 303.672577,211.352341 301.302917,212.382156 
	C300.004242,212.946579 298.300171,214.030014 297.532471,211.910217 
	C296.826355,209.960419 298.721802,209.367279 300.031128,208.856384 
	C302.181763,208.017166 304.392700,207.108612 306.653809,206.818497 
	C313.248138,205.972397 317.098969,209.404221 317.333649,216.040527 
	C317.398193,217.865707 317.355713,219.694656 317.361603,222.007889 
M302.046356,226.447311 
	C300.706207,229.722870 302.034424,232.035400 305.035309,233.147705 
	C307.408630,234.027374 309.811462,232.870758 311.039734,230.871750 
	C312.539886,228.430283 312.933899,225.114670 310.880035,223.069519 
	C308.906921,221.104782 306.248352,222.949585 304.092590,224.080429 
	C303.406525,224.440308 302.943054,225.224518 302.046356,226.447311 
z"/>
<path fill="#ffffff" opacity="1.000000" stroke="none" 
	d="
M370.585449,208.307129 
	C372.374756,210.886200 372.664032,213.069107 370.466339,214.926071 
	C368.417419,214.879364 368.180023,213.399048 367.504791,212.302399 
	C365.984283,209.832901 363.537537,210.136826 361.256500,210.554199 
	C359.707092,210.837677 358.552673,212.008301 358.540314,213.709427 
	C358.523499,216.029526 360.171478,217.198639 362.030823,218.127518 
	C364.698425,219.460190 367.487366,220.602112 369.995697,222.187531 
	C372.777405,223.945770 373.788666,226.738342 373.154144,230.000076 
	C372.552246,233.093933 370.461243,235.074219 367.615875,235.854492 
	C363.724854,236.921478 359.749359,236.790665 355.850739,235.454193 
	C353.600403,234.682755 352.724548,233.152283 352.851410,230.894485 
	C352.916321,229.739853 352.816284,228.435883 354.295380,228.069061 
	C355.707855,227.718765 356.462555,228.643021 356.917877,229.795303 
	C358.302216,233.298538 361.155823,233.674149 364.295349,233.172089 
	C365.979187,232.902817 367.492126,232.138916 367.754272,230.113388 
	C367.995880,228.246841 367.248566,226.801376 365.649719,225.948853 
	C363.748413,224.935043 361.732391,224.138550 359.781830,223.214600 
	C355.766937,221.312820 352.650909,218.657776 353.284760,213.709274 
	C353.813232,209.583557 358.047760,206.841293 363.481476,206.681854 
	C365.855255,206.612213 368.108307,207.061905 370.585449,208.307129 
z"/>
<path fill="#ffffff" opacity="1.000000" stroke="none" 
	d="
M153.953400,209.113403 
	C156.753693,210.229523 158.208878,207.718933 160.373322,207.179092 
	C162.567245,206.631912 164.426865,206.513870 164.963013,209.256348 
	C165.448700,211.740585 164.033768,212.217773 161.821548,212.438446 
	C155.191422,213.099808 154.333496,214.190994 154.322632,220.846268 
	C154.320190,222.339478 154.342636,223.832947 154.322311,225.325867 
	C154.270584,229.125412 153.633057,233.264282 159.441315,233.404846 
	C159.735382,233.411972 160.005035,234.428314 160.659195,235.700317 
	C155.161957,236.618546 150.307800,236.671036 144.738708,235.538956 
	C150.136566,229.216980 150.208542,215.200653 145.294006,208.890915 
	C148.256287,207.468826 150.836441,205.178192 153.953400,209.113403 
z"/>
<path fill="#ffffff" opacity="1.000000" stroke="none" 
	d="
M205.318451,218.030426 
	C205.325989,220.344666 205.300201,222.168121 205.314697,223.991241 
	C205.346405,227.981949 204.280273,232.317413 210.345367,235.268280 
	C204.601791,236.669052 200.498581,236.664322 195.997696,235.566101 
	C201.170609,228.528473 201.225311,215.750259 196.308533,209.723999 
	C198.037964,206.856934 200.851166,207.526642 203.268875,208.016022 
	C205.592606,208.486389 205.179291,210.796906 205.261154,212.567398 
	C205.337662,214.221878 205.294098,215.881912 205.318451,218.030426 
z"/>
<path fill="#ffffff" opacity="1.000000" stroke="none" 
	d="
M313.420135,62.988609 
	C314.035278,65.762955 314.296600,68.222466 315.462250,70.496689 
	C318.609894,76.637833 321.643005,78.151329 328.980103,76.738853 
	C329.029755,80.266296 326.970551,82.104446 324.215179,83.453728 
	C321.439331,84.813057 318.857117,84.489334 316.259094,82.777870 
	C310.447723,78.949516 307.751099,65.363693 312.447937,59.505466 
	C313.663879,60.275902 313.114594,61.570492 313.420135,62.988609 
z"/>
<path fill="#ffffff" opacity="1.000000" stroke="none" 
	d="
M178.004684,87.200386 
	C173.562439,88.206291 169.741989,90.369987 164.987747,89.977280 
	C169.206665,85.358627 177.759995,88.085518 180.230637,79.477562 
	C169.607513,81.661102 160.687851,85.185265 151.366806,87.500183 
	C154.426895,84.734627 158.395020,83.830261 162.068665,82.424431 
	C167.818741,80.223991 173.639313,78.195000 179.491074,76.280014 
	C181.501602,75.622070 184.363098,73.840698 185.255966,77.421738 
	C185.991821,80.373085 186.605682,83.862633 182.597412,85.500504 
	C181.210159,86.067368 179.796432,86.569489 178.004684,87.200386 
z"/>
<path fill="#ffffff" opacity="1.000000" stroke="none" 
	d="
M201.234467,196.026703 
	C204.044876,195.627243 205.440353,196.767029 205.670685,199.146591 
	C205.853287,201.033035 204.842804,202.322922 203.071716,202.897537 
	C201.689377,203.346069 200.389832,203.062958 199.592453,201.748230 
	C198.240585,199.519226 198.788773,197.651550 201.234467,196.026703 
z"/>
<path fill="#ffffff" opacity="1.000000" stroke="none" 
	d="
M305.221710,67.761513 
	C305.101349,69.297310 305.003235,70.440300 304.905121,71.583282 
	C302.938141,65.790718 303.895508,60.393764 307.149963,55.315453 
	C306.884491,59.386242 304.952728,63.215866 305.221710,67.761513 
z"/>
</svg>